<svg width="96" height="96" viewBox="0 0 96 96" fill="none" xmlns="http://www.w3.org/2000/svg" role="img" aria-labelledby="title desc">
  <title id="title">Waypoint notebook mark</title>
  <desc id="desc">Notebook mark with route path and compass-star seal.</desc>
  <rect x="12" y="10" width="66" height="76" rx="17" fill="#0D141D"/>
  <rect x="12.75" y="10.75" width="64.5" height="74.5" rx="16.25" stroke="#2E3A4B"/>
  <path d="M28 11V85" stroke="#39D0D8" stroke-opacity=".45" stroke-width="2"/>
  <path d="M39 34H62M39 46H64M39 58H56" stroke="#A8B3C1" stroke-width="2.8" stroke-linecap="round"/>
  <path d="M60 24C66.7 27.9 70.3 32.8 69.5 38.3C68.5 45.1 60.2 49.6 50.7 48.4" stroke="#39D0D8" stroke-width="2.3" stroke-linecap="round" stroke-dasharray="4 5"/>
  <circle cx="59.8" cy="24" r="3.8" fill="#D29922"/>
  <circle cx="50.1" cy="48.3" r="3.8" fill="#3FB950"/>
  <g transform="translate(50 63)">
    <circle cx="10" cy="10" r="10" fill="#071018" stroke="#58A6FF" stroke-opacity=".45" stroke-width="1.4"/>
    <path d="M10 4L12 8L16 10L12 12L10 16L8 12L4 10L8 8L10 4Z" fill="url(#miniGradient)"/>
  </g>
  <defs>
    <linearGradient id="miniGradient" x1="6" y1="6" x2="14.5" y2="14.5" gradientUnits="userSpaceOnUse">
      <stop stop-color="#9ECEFF"/>
      <stop offset=".56" stop-color="#39D0D8"/>
      <stop offset="1" stop-color="#D29922"/>
    </linearGradient>
  </defs>
</svg>
