<svg width="240" height="72" viewBox="0 0 240 72" fill="none" xmlns="http://www.w3.org/2000/svg" role="img" aria-labelledby="title desc">
  <title id="title">Waypoint OS primary logo</title>
  <desc id="desc">A compass pin mark with Waypoint OS wordmark.</desc>
  <rect width="240" height="72" rx="20" fill="#080A0C"/>
  <rect x="1" y="1" width="238" height="70" rx="19" stroke="#30363D" stroke-opacity=".72"/>
  <g transform="translate(18 16)">
    <rect width="40" height="40" rx="13" fill="url(#markGradient)"/>
    <path d="M20 9.5c-5.55 0-10.05 4.28-10.05 9.56 0 6.65 8.12 12.36 9.11 13.03.56.38 1.32.38 1.88 0 .99-.67 9.11-6.38 9.11-13.03C30.05 13.78 25.55 9.5 20 9.5Z" fill="#EAF6FF"/>
    <circle cx="20" cy="19" r="4.3" fill="#071018"/>
    <path d="M20 14.9v8.2M15.9 19h8.2" stroke="#39D0D8" stroke-width="1.4" stroke-linecap="round"/>
  </g>
  <text x="72" y="32" fill="#F5FBFF" font-family="IBM Plex Sans, Arial, sans-serif" font-size="20" font-weight="700" letter-spacing=".2">Waypoint OS</text>
  <text x="72" y="49" fill="#9BA3B0" font-family="IBM Plex Sans, Arial, sans-serif" font-size="12">Travel agency operating system</text>
  <defs>
    <linearGradient id="markGradient" x1="4" y1="4" x2="38" y2="38" gradientUnits="userSpaceOnUse">
      <stop stop-color="#2563EB"/>
      <stop offset=".58" stop-color="#39D0D8"/>
      <stop offset="1" stop-color="#3FB950"/>
    </linearGradient>
  </defs>
</svg>
